<!-- Generator: Adobe Illustrator 24.0.0, SVG Export Plug-In  -->
<svg version="1.1" xmlns="http://www.w3.org/2000/svg" xmlns:xlink="http://www.w3.org/1999/xlink" x="0px" y="0px" width="398px"
	 height="398px" viewBox="0 0 398 398" style="enable-background:new 0 0 398 398;" xml:space="preserve">
<style type="text/css">
	.st0{fill:#707070;}
</style>
<defs>
</defs>
<circle class="st0" cx="199" cy="199" r="199"/>
<g>
	<path d="M66.41,162.55c0.43,7.32,0.65,15.63,0.65,27.09c0,3.1,0.17,6.67,1.68,9.3c0.95,1.68,2.8,2.67,4.78,2.67h0.82v5.51h-0.99
		c-4.39,0-7.54-2.28-8.83-7.92H64.3c-1.03,1.68-2.93,3.4-6.03,4.95c-4.48,2.24-9.26,2.97-13.39,2.97c-6.33,0-13.22-3.75-13.22-13.65
		c0-3.36,0.9-6.46,2.37-9.34l1.85,0.65c-0.9,2.02-1.51,4.18-1.51,6.29c0,6.8,4.91,10.16,11.71,10.16c5.43,0,9.52-1.51,12.23-2.89
		c2.5-1.25,4.09-2.54,4.82-3.75c0.22-0.78,0.22-1.59,0.22-2.37c0-8.23-0.69-17.87-1.38-25.62c1.21-1.42,2.58-2.84,4.13-4.18
		L66.41,162.55z M52.76,176.89l-0.43-0.22c-2.5,0.99-4.09,2.37-4.65,4.18h3.4c3.06,0,4.35,1.25,4.35,3.32
		c0,4.22-4.09,6.16-7.88,6.16c-1.12,0-1.98-0.04-2.8-0.22l-2.84-1.68v-0.3c5.51-0.17,11.07-1.59,11.07-3.27
		c0-0.43-0.99-0.43-3.88-0.43c-2.67,0-3.79,0-3.79-0.56l-0.04-1.68c-0.04-1.81,0.99-3.79,2.76-5.94c1.64-1.94,3.75-3.45,4.82-3.45
		c0.69,0,0.99,0.34,0.99,0.99c0,0.73-0.47,1.89-0.9,3.1H52.76z"/>
	<path d="M75.2,201.61c1.77,0,3.66-0.6,5-1.33c1.29-0.73,2.07-2.11,2.07-5.17c0-8.66-0.47-16.41-1.12-26.31l-0.13-2.15l3.83-3.88
		l0.22,0.09c0.82,10.12,0.86,20.67,0.86,33.85c0,1.98,1.38,4.91,6.37,4.91h0.56v5.51h-0.9c-4,0-7.02-1.38-8.4-4.56h-0.17
		c-1.33,2.45-4.13,4.56-8.31,4.56h-0.73c-2.37,0-3.01-1.72-3.01-2.89c0-1.03,0.69-2.63,3.01-2.63H75.2z"/>
	<path d="M93.8,201.61c3.19,0,5.68-2.2,7.23-7.62c0.47-1.72,1.59-3.49,3.19-5.21c1.59-1.46,3.36-2.5,5.43-2.5
		c5.25,0,8.35,7.23,9.04,14.77c-0.9,3.92-2.5,5.56-4.56,5.56c-4.26,0-8.53-1.94-12.79-5.08h-0.3c-1.12,3.79-3.57,5.6-7.45,5.6h-0.73
		c-2.37,0-3.01-1.72-3.01-2.89c0-1.03,0.69-2.63,3.01-2.63H93.8z M108.87,199.89c1.64,0.69,3.4,1.25,5.12,1.25
		c0.65,0,1.21-0.09,1.38-0.47c-1.25-6.5-4.09-9.39-6.8-9.39c-2.45,0-4.52,1.38-5.77,4.22C104.09,197.43,106.29,198.81,108.87,199.89
		z"/>
	<path d="M245.65,207.12h-0.82c-3.88,0-7.11-1.64-8.78-7.02h-0.22c-0.34,1.64-1.25,3.01-3.1,4.13c-2.84,1.72-5.77,2.89-8.66,2.89
		c-4.82,0-7.49-2.93-7.49-7.97c0-1.08,0.04-2.11,0.13-3.19l1.68-0.13c0.17,3.57,1.94,5.77,6.07,5.77c2.28,0,5-0.99,7.02-2.15
		c1.59-0.9,2.8-2.2,2.8-3.23c0-2.93-1.55-8.66-3.57-16.02c0.99-1.51,1.94-3.06,3.06-4.44l0.26,0.17c1.59,6.2,2.93,12.83,4.09,19.16
		c0.78,4.26,3.57,6.5,6.8,6.5h0.73V207.12z"/>
	<path d="M246.9,200.66c4.52,0,5.99-2.24,7.28-6.33c1.68-5.38,5.08-8.18,7.97-8.18c2.11,0,3.7,0.78,5.17,2.89
		c1.08,1.55,1.98,3.19,4.31,8.1c0.95,2.02,3.23,3.53,6.72,3.53h0.73v5.51h-0.82c-2.5,0-4.82-0.86-6.63-3.75h-0.17
		c-0.26,1.38-0.69,2.5-1.38,3.27c-0.9,0.95-1.85,1.42-2.84,1.42c-3.32,0.04-8.74-2.33-12.19-6.03h-0.17
		c-1.21,2.76-3.92,5.08-8.57,5.08h-0.65c-2.37,0-3.01-1.72-3.01-2.89c0-1.03,0.69-2.63,3.01-2.63H246.9z M261.42,199.93
		c1.94,1.12,4.44,1.89,5.94,1.89c0.82,0,1.59-0.09,1.59-1.08c0-1.68-1.03-4-2.15-5.73c-1.68-2.54-3.66-3.88-5.51-3.88
		c-2.37,0-4.18,1.64-4.95,3.88C256.77,196.61,259.52,198.85,261.42,199.93z"/>
	<path d="M280.02,201.61c3.66,0,6.59-1.21,7.11-3.79c0.34-1.68,0.69-3.32,1.12-4.91c0.95-0.9,1.89-1.59,2.84-2.24l0.26,0.26
		c-0.39,1.38-0.69,2.76-0.69,4.05c0,2.24,0.56,3.57,2.37,4.78c2.45-3.75,5.12-7.54,8.91-10.85c2.76-2.41,5.81-4.44,9.65-4.44
		c6.11,0,9.73,4.48,9.73,9.52c0,2.45-0.95,5.12-2.2,7.62h5.73v5.51h-1.12c-4.31,0-8.31-0.43-12.88-1.51
		c-2.63,0.82-5.6,1.51-10.03,1.51c-5.6,0-9.82-1.33-12.19-4.52h-0.13c-2.33,3.62-6.03,4.52-8.91,4.52h-0.52
		c-2.37,0-3.01-1.72-3.01-2.89c0-1.03,0.69-2.63,3.01-2.63H280.02z M303.32,201.61c4.35,0,8.87-0.99,11.2-1.94
		c2.11-0.86,3.53-1.98,3.53-3.23c-0.56-3.7-4.22-6.42-8.05-6.42c-5.08,0-9.82,4.18-14.56,10.68
		C296.99,201.22,299.48,201.61,303.32,201.61z"/>
	<path d="M325.8,201.61c1.38,0,2.97-0.17,4.82-1.16c1.51-0.86,2.28-2.41,2.28-4.65c-0.09-6.89-0.56-14.43-1.25-22.35
		c-0.17-1.98-0.43-3.79-0.43-5.38c0-0.95,0.43-1.94,1.29-2.89c0.6-0.73,1.42-1.55,2.37-2.37l0.3,0.22c-0.09,2.8,1.25,6.16,3.49,9.86
		c-0.78,0.73-1.68,1.46-2.71,2.2c0.17,4.95,0.56,10.16,0.56,14.94c0,4.65-0.47,8.23-1.72,10.81c-0.9,2.2-1.94,4-3.92,5
		c-1.68,0.86-3.7,1.29-5.38,1.29h-0.65c-2.37,0-3.01-1.72-3.01-2.89c0-1.03,0.69-2.63,3.01-2.63H325.8z"/>
	<path d="M346.12,206.82c0.43-2.71,0.47-5.77,0.47-8.61v-4.22c0-7.88-0.86-19.34-1.55-26.79c1.21-1.55,2.89-3.36,4.22-4.56
		l0.39,0.13c0.9,9.39,1.12,20.28,1.12,30.32c0,2.63-0.09,5.21-0.3,7.11c-0.13,2.37-1.29,4.18-3.79,6.93L346.12,206.82z"/>
	<path d="M66.24,134.06c-4.52,0-7.84-1.59-7.84-5.04c0-1.25,0.43-2.84,1.42-5.04c1.81-3.83,6.33-7.75,13.74-11.84l-0.26-3.23
		c1.08-1.25,2.24-2.5,3.4-3.53h0.47c0.17,6.67,0.17,13.39,0.26,20.07c0.04,3.01,0.34,4.95,1.64,6.07c0.99,0.86,2.63,1.12,4.52,1.12
		h1.03v5.51h-0.95c-4.22,0-7.28-1.12-8.91-5.99C72.31,133.24,69.6,134.06,66.24,134.06z M73.86,116.92
		c-7.67,3.96-11.67,7.15-11.67,9.43c0,1.68,2.58,2.41,5.51,2.41c1.85,0,3.83-0.39,6.37-1.21L73.86,116.92z"/>
	<path d="M85.49,132.64c1.77,0,3.66-0.6,5-1.33c1.29-0.73,2.07-2.11,2.07-5.17c0-8.66-0.47-16.41-1.12-26.31l-0.13-2.15l3.83-3.88
		l0.22,0.09c0.82,10.12,0.86,20.67,0.86,33.85c0,1.98,1.38,4.91,6.37,4.91h0.56v5.51h-0.9c-4,0-7.02-1.38-8.4-4.56h-0.17
		c-1.33,2.45-4.13,4.56-8.31,4.56h-0.73c-2.37,0-3.01-1.72-3.01-2.89c0-1.03,0.69-2.63,3.01-2.63H85.49z"/>
	<path d="M104.09,132.64c1.38,0,2.97-0.17,4.82-1.16c1.51-0.86,2.28-2.41,2.28-4.65c-0.09-6.89-0.56-14.43-1.25-22.35
		c-0.17-1.98-0.43-3.79-0.43-5.38c0-0.95,0.43-1.94,1.29-2.89c0.6-0.73,1.42-1.55,2.37-2.37l0.3,0.22c-0.09,2.8,1.25,6.16,3.49,9.86
		c-0.78,0.73-1.68,1.46-2.71,2.2c0.17,4.95,0.56,10.16,0.56,14.94c0,4.65-0.47,8.23-1.72,10.81c-0.9,2.2-1.94,4-3.92,5
		c-1.68,0.86-3.7,1.29-5.38,1.29h-0.65c-2.37,0-3.01-1.72-3.01-2.89c0-1.03,0.69-2.63,3.01-2.63H104.09z"/>
	<path d="M124.42,138.88c0.43-2.71,0.47-5.77,0.47-8.61v-4.22c0-7.88-0.86-19.34-1.55-26.79c1.21-1.55,2.89-3.36,4.22-4.56
		l0.39,0.13c0.9,9.39,1.12,20.28,1.12,30.32c0,2.63-0.09,5.21-0.3,7.11c-0.13,2.37-1.29,4.18-3.79,6.93L124.42,138.88z"/>
	<path d="M185.23,138.15h-0.82c-3.88,0-7.11-1.64-8.78-7.02h-0.22c-0.34,1.64-1.25,3.01-3.1,4.13c-2.84,1.72-5.77,2.89-8.66,2.89
		c-4.82,0-7.49-2.93-7.49-7.97c0-1.08,0.04-2.11,0.13-3.19l1.68-0.13c0.17,3.57,1.94,5.77,6.07,5.77c2.28,0,5-0.99,7.02-2.15
		c1.59-0.9,2.8-2.2,2.8-3.23c0-2.93-1.55-8.66-3.57-16.02c0.99-1.51,1.94-3.06,3.06-4.44l0.26,0.17c1.59,6.2,2.93,12.83,4.09,19.16
		c0.78,4.26,3.57,6.5,6.8,6.5h0.73V138.15z"/>
	<path d="M187.86,132.64c6.98,0,14.12-2.45,23-7.79l0.04-0.17c-5-1.85-9.56-3.01-13.52-3.01c-2.45,0-4.26,0.78-5.47,2.15l0.52,2.15
		l-1.29,3.88h-0.43l-2.11-5.68c0.34-4.78,4.18-7.75,9.34-7.75c2.89,0,7.41,1.03,14.12,3.75c2.07,0.82,4.65,1.33,7.36,1.38l3.49-0.04
		l0.13,0.09l-2.28,4.52c-3.62-0.09-6.03,0.69-7.45,1.59l-7.19,4.69c-5.77,3.75-11.93,5.77-18.65,5.77h-2.24
		c-2.37,0-3.01-1.72-3.01-2.89c0-1.03,0.69-2.63,3.01-2.63H187.86z"/>
	<path d="M230.23,138.88c0.43-2.71,0.47-5.77,0.47-8.61v-4.22c0-7.88-0.86-19.34-1.55-26.79c1.21-1.55,2.89-3.36,4.22-4.56
		l0.39,0.13c0.9,9.39,1.12,20.28,1.12,30.32c0,2.63-0.09,5.21-0.3,7.11c-0.13,2.37-1.29,4.18-3.79,6.93L230.23,138.88z"/>
	<path d="M269.6,134.06c-4.52,0-7.84-1.59-7.84-5.04c0-1.25,0.43-2.84,1.42-5.04c1.81-3.83,6.33-7.75,13.74-11.84l-0.26-3.23
		c1.08-1.25,2.24-2.5,3.4-3.53h0.47c0.17,6.67,0.17,13.39,0.26,20.07c0.04,3.01,0.34,4.95,1.64,6.07c0.99,0.86,2.63,1.12,4.52,1.12
		h1.03v5.51h-0.95c-4.22,0-7.28-1.12-8.91-5.99C275.67,133.24,272.96,134.06,269.6,134.06z M277.22,116.92
		c-7.67,3.96-11.67,7.15-11.67,9.43c0,1.68,2.58,2.41,5.51,2.41c1.85,0,3.83-0.39,6.37-1.21L277.22,116.92z"/>
	<path d="M288.85,132.64c1.77,0,3.66-0.6,5-1.33c1.29-0.73,2.07-2.11,2.07-5.17c0-8.66-0.47-16.41-1.12-26.31l-0.13-2.15l3.83-3.88
		l0.22,0.09c0.82,10.12,0.86,20.67,0.86,33.85c0,1.98,1.38,4.91,6.37,4.91h0.56v5.51h-0.9c-4,0-7.02-1.38-8.4-4.56h-0.17
		c-1.33,2.45-4.13,4.56-8.31,4.56h-0.73c-2.37,0-3.01-1.72-3.01-2.89c0-1.03,0.69-2.63,3.01-2.63H288.85z"/>
	<path d="M307.45,132.64c1.38,0,2.97-0.17,4.82-1.16c1.51-0.86,2.28-2.41,2.28-4.65c-0.09-6.89-0.56-14.43-1.25-22.35
		c-0.17-1.98-0.43-3.79-0.43-5.38c0-0.95,0.43-1.94,1.29-2.89c0.6-0.73,1.42-1.55,2.37-2.37l0.3,0.22c-0.09,2.8,1.25,6.16,3.49,9.86
		c-0.78,0.73-1.68,1.46-2.71,2.2c0.17,4.95,0.56,10.16,0.56,14.94c0,4.65-0.47,8.23-1.72,10.81c-0.9,2.2-1.94,4-3.92,5
		c-1.68,0.86-3.7,1.29-5.38,1.29h-0.65c-2.37,0-3.01-1.72-3.01-2.89c0-1.03,0.69-2.63,3.01-2.63H307.45z"/>
	<path d="M327.78,138.88c0.43-2.71,0.47-5.77,0.47-8.61v-4.22c0-7.88-0.86-19.34-1.55-26.79c1.21-1.55,2.89-3.36,4.22-4.56
		l0.39,0.13c0.9,9.39,1.12,20.28,1.12,30.32c0,2.63-0.09,5.21-0.3,7.11c-0.13,2.37-1.29,4.18-3.79,6.93L327.78,138.88z"/>
	<path d="M140.7,203.03c-4.52,0-7.84-1.59-7.84-5.04c0-1.25,0.43-2.84,1.42-5.04c1.81-3.83,6.33-7.75,13.74-11.84l-0.26-3.23
		c1.08-1.25,2.24-2.5,3.4-3.53h0.47c0.17,6.67,0.17,13.39,0.26,20.07c0.04,3.01,0.34,4.95,1.64,6.07c0.99,0.86,2.63,1.12,4.52,1.12
		h1.03v5.51h-0.95c-4.22,0-7.28-1.12-8.91-5.99C146.77,202.21,144.06,203.03,140.7,203.03z M148.32,185.89
		c-7.67,3.96-11.67,7.15-11.67,9.43c0,1.68,2.58,2.41,5.51,2.41c1.85,0,3.83-0.39,6.37-1.21L148.32,185.89z"/>
	<path d="M159.95,201.61c1.77,0,3.66-0.6,5-1.33c1.29-0.73,2.07-2.11,2.07-5.17c0-8.66-0.47-16.41-1.12-26.31l-0.13-2.15l3.83-3.88
		l0.22,0.09c0.82,10.12,0.86,20.67,0.86,33.85c0,1.98,1.38,4.91,6.37,4.91h0.56v5.51h-0.9c-4,0-7.02-1.38-8.4-4.56h-0.17
		c-1.33,2.45-4.13,4.56-8.31,4.56h-0.73c-2.37,0-3.01-1.72-3.01-2.89c0-1.03,0.69-2.63,3.01-2.63H159.95z"/>
	<path d="M178.55,201.61c1.38,0,2.97-0.17,4.82-1.16c1.51-0.86,2.28-2.41,2.28-4.65c-0.09-6.89-0.56-14.43-1.25-22.35
		c-0.17-1.98-0.43-3.79-0.43-5.38c0-0.95,0.43-1.94,1.29-2.89c0.6-0.73,1.42-1.55,2.37-2.37l0.3,0.22c-0.09,2.8,1.25,6.16,3.49,9.86
		c-0.78,0.73-1.68,1.46-2.71,2.2c0.17,4.95,0.56,10.16,0.56,14.94c0,4.65-0.47,8.23-1.72,10.81c-0.9,2.2-1.94,4-3.92,5
		c-1.68,0.86-3.7,1.29-5.38,1.29h-0.65c-2.37,0-3.01-1.72-3.01-2.89c0-1.03,0.69-2.63,3.01-2.63H178.55z"/>
	<path d="M198.88,206.82c0.43-2.71,0.47-5.77,0.47-8.61v-4.22c0-7.88-0.86-19.34-1.55-26.79c1.21-1.55,2.89-3.36,4.22-4.56
		l0.39,0.13c0.9,9.39,1.12,20.28,1.12,30.32c0,2.63-0.09,5.21-0.3,7.11c-0.13,2.37-1.29,4.18-3.79,6.93L198.88,206.82z"/>
</g>
<g>
	<path d="M60.59,281.08c-4.52,0-7.84-1.59-7.84-5.04c0-1.25,0.43-2.84,1.42-5.04c1.81-3.83,6.33-7.75,13.74-11.84l-0.26-3.23
		c1.08-1.25,2.24-2.5,3.4-3.53h0.47c0.17,6.67,0.17,13.39,0.26,20.07c0.04,3.01,0.34,4.95,1.64,6.07c0.99,0.86,2.63,1.12,4.52,1.12
		h1.03v5.51h-0.95c-4.22,0-7.28-1.12-8.91-5.99C66.67,280.26,63.95,281.08,60.59,281.08z M68.22,263.94
		c-7.67,3.96-11.67,7.15-11.67,9.43c0,1.68,2.58,2.41,5.51,2.41c1.85,0,3.83-0.39,6.37-1.21L68.22,263.94z"/>
	<path d="M79.84,279.66c1.77,0,3.66-0.6,5-1.33c1.29-0.73,2.07-2.11,2.07-5.17c0-8.66-0.47-16.41-1.12-26.31l-0.13-2.15l3.83-3.88
		l0.22,0.09c0.82,10.12,0.86,20.67,0.86,33.85c0,1.98,1.38,4.91,6.37,4.91h0.56v5.51h-0.9c-4,0-7.02-1.38-8.4-4.56h-0.17
		c-1.33,2.45-4.13,4.56-8.31,4.56h-0.73c-2.37,0-3.01-1.72-3.01-2.89c0-1.03,0.69-2.63,3.01-2.63H79.84z"/>
	<path d="M98.45,279.66c1.38,0,2.97-0.17,4.82-1.16c1.51-0.86,2.28-2.41,2.28-4.65c-0.09-6.89-0.56-14.43-1.25-22.35
		c-0.17-1.98-0.43-3.79-0.43-5.38c0-0.95,0.43-1.94,1.29-2.89c0.6-0.73,1.42-1.55,2.37-2.37l0.3,0.22c-0.09,2.8,1.25,6.16,3.49,9.86
		c-0.78,0.73-1.68,1.46-2.71,2.2c0.17,4.95,0.56,10.16,0.56,14.94c0,4.65-0.47,8.23-1.72,10.81c-0.9,2.2-1.94,4-3.92,5
		c-1.68,0.86-3.7,1.29-5.38,1.29H97.5c-2.37,0-3.01-1.72-3.01-2.89c0-1.03,0.69-2.63,3.01-2.63H98.45z"/>
	<path d="M118.77,285.9c0.43-2.71,0.47-5.77,0.47-8.61v-4.22c0-7.88-0.86-19.34-1.55-26.79c1.21-1.55,2.89-3.36,4.22-4.56l0.39,0.13
		c0.9,9.39,1.12,20.28,1.12,30.32c0,2.63-0.09,5.21-0.3,7.11c-0.13,2.37-1.29,4.18-3.79,6.93L118.77,285.9z"/>
	<path d="M175.28,241.07c-0.04,0.3-0.09,0.6-0.09,0.9c0,2.54,1.51,5.51,3.49,8.74c-0.65,0.6-1.55,1.42-2.63,2.11
		c0.22,5.25,0.34,10.21,0.34,15.46c0,2.89-0.65,6.03-1.42,8.4c-1.16,3.36-2.5,5.6-4.78,7.28c-2.97,2.2-7.32,3.66-10.81,3.66
		c-4,0-7.67-1.03-10.64-1.98v-0.47c8.31-1.12,14.86-2.93,19.29-5.6c-0.22-1.72-2.37-5-4.87-8.78c-2.76-4.22-5.86-8.61-9.39-13.78
		c-2.8-4.09-4.26-6.59-4.26-8.01c0-0.95,1.42-3.32,1.98-4.13l0.22-0.04c1.64,2.2,4.22,4.78,7.02,7.54l-1.38,2.45
		c3.92,6.2,7.71,11.8,10.25,16.28c1.12,2.02,1.81,4.48,1.85,7.49l0.26,0.04c1.98-1.42,3.45-3.88,3.45-7.84
		c0-4.39-0.39-9.86-1.12-17.4c-0.09-1.94-0.52-4.78-0.52-6.72c0-1.33,0.3-2.28,0.9-3.06c0.69-0.99,1.59-1.85,2.54-2.76
		L175.28,241.07z"/>
	<path d="M195.48,295.68c-0.52,1.08-1.08,2.07-1.68,2.93c-4.31,0.69-8.05,1.81-11.2,3.23l-0.09-0.13l1.03-1.81
		c0.39-0.47,1.25-1.16,1.98-1.42v-0.13c-2.02-0.6-3.36-1.89-3.36-3.75c0-1.16,0.78-2.54,2.02-3.79c1.68-1.51,3.45-2.45,5.21-2.45
		c1.72,0,2.71,0.99,2.71,2.11c0,1.12-0.69,1.98-1.38,2.8h-0.09c-0.47-0.95-0.9-1.55-1.38-1.68c-0.3-0.09-0.82-0.13-1.33-0.13
		c-1.51,0-3.01,0.86-3.01,1.51c0,2.07,3.62,2.76,6.16,2.76c1.46,0,2.93-0.09,4.39-0.17V295.68z M186.78,285.9
		c0.43-2.71,0.47-5.77,0.47-8.61v-4.22c0-7.88-0.86-19.34-1.55-26.79c1.21-1.55,2.89-3.36,4.22-4.56l0.39,0.13
		c0.9,9.39,1.12,20.28,1.12,30.32c0,2.63-0.09,5.21-0.3,7.11c-0.13,2.37-1.29,4.18-3.79,6.93L186.78,285.9z"/>
	<path d="M227.39,281.08c-4.52,0-7.84-1.59-7.84-5.04c0-1.25,0.43-2.84,1.42-5.04c1.81-3.83,6.33-7.75,13.74-11.84l-0.26-3.23
		c1.08-1.25,2.24-2.5,3.4-3.53h0.47c0.17,6.67,0.17,13.39,0.26,20.07c0.04,3.01,0.34,4.95,1.64,6.07c0.99,0.86,2.63,1.12,4.52,1.12
		h1.03v5.51h-0.95c-4.22,0-7.28-1.12-8.92-5.99C233.46,280.26,230.75,281.08,227.39,281.08z M235.01,263.94
		c-7.67,3.96-11.67,7.15-11.67,9.43c0,1.68,2.58,2.41,5.51,2.41c1.85,0,3.83-0.39,6.37-1.21L235.01,263.94z"/>
	<path d="M246.73,279.66c1.38,0,2.97-0.17,4.82-1.16c1.51-0.86,2.28-2.41,2.28-4.65c-0.09-6.89-0.56-14.43-1.25-22.35
		c-0.17-1.98-0.43-3.79-0.43-5.38c0-0.95,0.43-1.94,1.29-2.89c0.6-0.73,1.42-1.55,2.37-2.37l0.3,0.22c-0.09,2.8,1.25,6.16,3.49,9.86
		c-0.78,0.73-1.68,1.46-2.71,2.2c0.17,4.95,0.56,10.16,0.56,14.94c0,4.65-0.47,8.23-1.72,10.81c-0.9,2.2-1.94,4-3.92,5
		c-1.68,0.86-3.7,1.29-5.38,1.29h-0.65c-2.37,0-3.01-1.72-3.01-2.89c0-1.03,0.69-2.63,3.01-2.63H246.73z"/>
	<path d="M277.22,295.68c-0.52,1.08-1.08,2.07-1.68,2.93c-4.31,0.69-8.05,1.81-11.2,3.23l-0.09-0.13l1.03-1.81
		c0.39-0.47,1.25-1.16,1.98-1.42v-0.13c-2.02-0.6-3.36-1.89-3.36-3.75c0-1.16,0.78-2.54,2.02-3.79c1.68-1.51,3.45-2.45,5.21-2.45
		c1.72,0,2.71,0.99,2.71,2.11c0,1.12-0.69,1.98-1.38,2.8h-0.09c-0.47-0.95-0.9-1.55-1.38-1.68c-0.3-0.09-0.82-0.13-1.33-0.13
		c-1.51,0-3.01,0.86-3.01,1.51c0,2.07,3.62,2.76,6.16,2.76c1.46,0,2.93-0.09,4.39-0.17V295.68z M268.52,285.9
		c0.43-2.71,0.47-5.77,0.47-8.61v-4.22c0-7.88-0.86-19.34-1.55-26.79c1.21-1.55,2.89-3.36,4.22-4.56l0.39,0.13
		c0.9,9.39,1.12,20.28,1.12,30.32c0,2.63-0.09,5.21-0.3,7.11c-0.13,2.37-1.29,4.18-3.79,6.93L268.52,285.9z"/>
	<path d="M326.27,241.07c-0.04,0.3-0.09,0.6-0.09,0.9c0,2.54,1.51,5.51,3.49,8.74c-0.65,0.6-1.55,1.42-2.63,2.11
		c0.22,5.25,0.34,10.21,0.34,15.46c0,2.89-0.65,6.03-1.42,8.4c-1.16,3.36-2.5,5.6-4.78,7.28c-2.97,2.2-7.32,3.66-10.81,3.66
		c-4,0-7.67-1.03-10.64-1.98v-0.47c8.31-1.12,14.86-2.93,19.29-5.6c-0.22-1.72-2.37-5-4.87-8.78c-2.76-4.22-5.86-8.61-9.39-13.78
		c-2.8-4.09-4.26-6.59-4.26-8.01c0-0.95,1.42-3.32,1.98-4.13l0.22-0.04c1.64,2.2,4.22,4.78,7.02,7.54l-1.38,2.45
		c3.92,6.2,7.71,11.8,10.25,16.28c1.12,2.02,1.81,4.48,1.85,7.49l0.26,0.04c1.98-1.42,3.45-3.88,3.45-7.84
		c0-4.39-0.39-9.86-1.12-17.4c-0.09-1.94-0.52-4.78-0.52-6.72c0-1.33,0.3-2.28,0.9-3.06c0.69-0.99,1.59-1.85,2.54-2.76
		L326.27,241.07z"/>
</g>
</svg>
